<!-- icon666.com - MILLIONS vector ICONS FREE --><svg version="1.1" id="Capa_1" xmlns="http://www.w3.org/2000/svg" xmlns:xlink="http://www.w3.org/1999/xlink" x="0px" y="0px" viewBox="0 0 387.004 387.004" style="enable-background:new 0 0 387.004 387.004;" xml:space="preserve"><path d="M382.611,332.753l-40.815-40.813c10.112-14.311,16.062-31.765,16.062-50.581c0-43.331-31.534-79.432-72.858-86.571v-26.286 h20c4.944,0,9.571-2.437,12.369-6.514c2.797-4.077,3.405-9.271,1.626-13.885l-27-70c-2.232-5.785-7.794-9.602-13.995-9.602H42 c-6.201,0-11.764,3.816-13.995,9.602l-27,70c-1.779,4.613-1.171,9.808,1.626,13.885c2.798,4.077,7.425,6.514,12.369,6.514h20V343.5 c0,8.284,6.716,15,15,15l220,0.002c7.767,0,14.154-5.902,14.923-13.467c0.051-0.504,0.077-1.016,0.077-1.533v-15.571 c13.07-2.259,25.16-7.411,35.584-14.776l40.813,40.812c2.929,2.93,6.768,4.394,10.607,4.394c3.839,0,7.678-1.465,10.606-4.394 C388.469,348.108,388.469,338.611,382.611,332.753z M327.858,241.36c0,31.902-25.955,57.857-57.858,57.857 c-31.903,0-57.859-25.955-57.859-57.857c0-31.902,25.956-57.857,57.859-57.857C301.902,183.502,327.858,209.457,327.858,241.36z M52.291,58.502h215.418l15.428,40H270H50H36.863L52.291,58.502z M65,128.502h190v26.286c-41.325,7.139-72.859,43.239-72.859,86.571 c0,43.332,31.534,79.433,72.859,86.571v0.571L65,328.5V128.502z" fill="#000000" style="fill: rgb(40, 201, 125);"></path></svg>